#!OML:ASF F:\VICON\USERDATA\INSTALL\rory3\rory3.ASF
:FULLY-SPECIFIED
:DEGREES
229
root -1.32124 16.0893 4.55395 -0.338447 1.48179 -0.180047
lowerback 13.7063 1.48583 -4.44399
upperback -4.26085 1.37837 1.76848
thorax -12.6119 1.08988 4.13861
lowerneck -10.2901 -6.2994 -3.79327
upperneck 18.5552 -8.87401 4.31413
head 7.78004 -4.10761 1.15692
rclavicle -9.49197e-015 -1.63003e-014
rhumerus -28.4555 -4.33398 -81.1004
rradius 31.5509
rwrist -1.71413
rhand -11.4703 20.1203
rfingers 7.12502
rthumb 14.5674 -9.3482
lclavicle -9.49197e-015 -1.63003e-014
lhumerus -42.9795 8.0709 83.1245
lradius 20.8935
lwrist -2.33447
lhand -3.98304 19.2874
lfingers 7.12502
lthumb 21.7702 48.0831
rfemur -4.93702 14.4108 28.2593
rtibia 25.54
rfoot -15.5032 -9.05117
rtoes -7.78029
lfemur -33.7502 0.40532 -20.7387
ltibia 61.3908
lfoot -5.42867 0.706313
ltoes 11.5515
230
root -1.31761 16.0899 4.67274 -0.275863 1.59867 -0.322096
lowerback 13.8107 1.41261 -4.34399
upperback -4.29519 1.29985 1.81732
thorax -12.7037 1.05064 4.15534
lowerneck -9.96957 -6.23213 -3.80596
upperneck 18.3589 -8.76069 4.2356
head 7.64979 -4.07071 1.15824
rclavicle 1.64494e-014 -7.95139e-016
rhumerus -28.0061 -3.87726 -81.3142
rradius 32.0666
rwrist -2.19838
rhand -11.1193 19.829
rfingers 7.12502
rthumb 14.9056 -9.61469
lclavicle 1.64494e-014 -7.95139e-016
lhumerus -42.9512 8.4283 82.9633
lradius 20.9114
lwrist -2.38479
lhand -3.93296 19.1542
lfingers 7.12502
lthumb 21.8183 47.9443
rfemur -4.08933 14.4596 28.5629
rtibia 24.8274
rfoot -15.6231 -9.34838
rtoes -8.59946
lfemur -34.0947 -0.531484 -20.4735
ltibia 59.1628
lfoot -5.41358 0.83902
ltoes 12.1492
231
root -1.31794 16.0855 4.78384 -0.189501 1.87823 -0.555359
lowerback 13.9956 1.3397 -4.16434
upperback -4.37184 1.23119 1.84319
thorax -12.8912 1.01159 4.099
lowerneck -10.1391 -6.25272 -3.73892
upperneck 18.4817 -8.79697 4.20612
head 7.71762 -4.08114 1.12723
rclavicle -1.42752e-014 -1.41137e-014
rhumerus -27.6872 -3.68934 -81.4794
rradius 32.5251
rwrist -2.25226
rhand -11.1063 19.7776
rfingers 7.12502
rthumb 14.9181 -9.6652
lclavicle -1.42752e-014 -1.41137e-014
lhumerus -42.9297 8.45492 82.9041
lradius 20.9955
lwrist -2.40063
lhand -3.89689 19.2565
lfingers 7.12502
lthumb 21.853 48.0426
rfemur -3.23722 14.5123 29.0065
rtibia 24.0361
rfoot -15.7692 -9.84305
rtoes -9.67885
lfemur -34.4485 -1.63441 -20.0345
ltibia 56.8736
lfoot -5.47785 0.81643
ltoes 11.4753
232
root -1.3129 16.0879 4.90546 -0.164557 1.91403 -0.645878
lowerback 14.0184 1.32214 -4.11991
upperback -4.34319 1.21577 1.84735
thorax -12.8687 0.999806 4.08193
lowerneck -10.8208 -6.31372 -3.62559
upperneck 18.9576 -8.87884 4.05569
head 7.98852 -4.10633 1.02337
rclavicle 3.37934e-015 2.26615e-014
rhumerus -27.3159 -3.3108 -81.6773
rradius 33.0582
rwrist -2.48458
rhand -11.0444 19.5807
rfingers 7.12502
rthumb 14.9777 -9.85766
lclavicle 3.37934e-015 2.26615e-014
lhumerus -42.8424 8.46838 82.8816
lradius 21.147
lwrist -2.31035
lhand -3.73244 19.5305
lfingers 7.12502
lthumb 22.0109 48.2981
rfemur -2.23739 14.5257 29.2589
rtibia 23.145
rfoot -15.8603 -10.0802
rtoes -10.7338
lfemur -34.5136 -2.62841 -19.7216
ltibia 54.4359
lfoot -5.54859 0.951782
ltoes 10.6418
233
root -1.30125 16.0958 5.03502 -0.0611827 1.87479 -0.598269
lowerback 13.8076 1.33899 -4.11799
upperback -4.32889 1.24109 1.79893
thorax -12.7256 1.00519 4.02064
lowerneck -10.9139 -6.37043 -3.6852
upperneck 19.1633 -8.95563 4.05896
head 8.08007 -4.14168 1.01991
rclavicle -6.60959e-015 1.25234e-014
rhumerus -27.1608 -2.79883 -81.8531
rradius 33.7523
rwrist -2.90544
rhand -11.0352 19.5052
rfingers 7.12502
rthumb 14.9866 -9.93253
lclavicle -6.60959e-015 1.25234e-014
lhumerus -42.7374 8.6778 82.7449
lradius 21.106
lwrist -2.413
lhand -3.70693 19.5443
lfingers 7.12502
lthumb 22.0354 48.3089
rfemur -1.1942 14.4412 29.276
rtibia 22.0563
rfoot -15.8699 -10.1375
rtoes -11.4969
lfemur -34.4873 -3.76015 -19.5261
ltibia 51.8682
lfoot -5.25194 1.42702
ltoes 11.666
234
root -1.29092 16.1042 5.16068 0.0857403 1.85156 -0.745272
lowerback 13.6608 1.33848 -3.93191
upperback -4.31141 1.2837 1.82205
thorax -12.6155 1.00867 3.92985
lowerneck -10.5932 -6.38482 -3.93941
upperneck 18.8844 -8.96612 4.27524
head 7.95272 -4.15421 1.14382
rclavicle 5.31749e-015 -7.95139e-016
rhumerus -26.9336 -2.45657 -81.9538
rradius 34.2634
rwrist -3.0656
rhand -11.0503 19.5101
rfingers 7.12502
rthumb 14.972 -9.92867
lclavicle 5.31749e-015 -7.95139e-016
lhumerus -42.5824 8.4463 82.9648
lradius 21.2786
lwrist -2.01186
lhand -3.6986 19.6479
lfingers 7.12502
lthumb 22.0434 48.4117
rfemur -0.112713 14.3786 29.4906
rtibia 20.7705
rfoot -15.6726 -10.2241
rtoes -11.6325
lfemur -34.5162 -4.92039 -19.0338
ltibia 49.2501
lfoot -4.8257 1.89818
ltoes 13.5679
235
root -1.2817 16.1164 5.2872 0.186287 1.80989 -0.983506
lowerback 13.6082 1.32904 -3.682
upperback -4.28101 1.3267 1.88262
thorax -12.5465 1.01013 3.84403
lowerneck -10.7515 -6.38663 -4.01098
upperneck 18.8342 -8.95 4.28933
head 7.9679 -4.14783 1.15689
rclavicle 1.09332e-015 1.2921e-014
rhumerus -26.5379 -2.04989 -82.0671
rradius 34.5664
rwrist -3.2539
rhand -11.259 19.4995
rfingers 7.12502
rthumb 14.771 -9.95412
lclavicle 1.09332e-015 1.2921e-014
lhumerus -42.4507 8.41722 83.0671
lradius 21.4338
lwrist -1.96733
lhand -3.75758 19.5954
lfingers 7.12502
lthumb 21.9867 48.3658
rfemur 1.0978 14.4118 29.8262
rtibia 19.3313
rfoot -15.409 -10.3278
rtoes -11.6467
lfemur -34.5131 -6.10583 -18.3948
ltibia 46.658
lfoot -4.8286 2.39875
ltoes 11.2723
236
root -1.26947 16.1299 5.41298 0.367088 1.83523 -0.950715
lowerback 13.4732 1.27661 -3.70954
upperback -4.37911 1.25413 1.87267
thorax -12.571 0.980169 3.86742
lowerneck -10.7393 -6.37292 -3.92802
upperneck 18.8712 -8.9148 4.12324
head 7.96436 -4.14088 1.09335
rclavicle 1.75552e-014 -6.75868e-015
rhumerus -26.4175 -1.46393 -82.2325
rradius 34.9796
rwrist -3.59522
rhand -11.1631 19.6501
rfingers 7.12502
rthumb 14.8634 -9.79678
lclavicle 1.75552e-014 -6.75868e-015
lhumerus -42.5284 8.54999 83.0005
lradius 21.461
lwrist -1.99788
lhand -3.77075 19.4398
lfingers 7.12502
lthumb 21.9741 48.2117
rfemur 2.29215 14.3723 29.8266
rtibia 17.7768
rfoot -15.1826 -10.3662
rtoes -11.8996
lfemur -34.5285 -7.55763 -17.9516
ltibia 44.0992
lfoot -5.16424 2.98746
ltoes 9.82539
237
root -1.25942 16.1329 5.53572 0.433121 1.9588 -1.1102
lowerback 13.4654 1.20967 -3.54261
upperback -4.43573 1.1973 1.8914
thorax -12.6208 0.943287 3.80731
lowerneck -10.3114 -6.38799 -4.02738
upperneck 18.7178 -8.93739 4.19594
head 7.84593 -4.16206 1.14643
rclavicle -1.19395e-014 1.0138e-014
rhumerus -26.4309 -0.970255 -82.3844
rradius 35.4999
rwrist -3.86696
rhand -11.0376 19.8105
rfingers 7.12502
rthumb 14.9842 -9.62743
lclavicle -1.19395e-014 1.0138e-014
lhumerus -42.495 8.72972 82.8718
lradius 21.429
lwrist -2.10124
lhand -3.77456 19.5056
lfingers 7.12502
lthumb 21.9704 48.2779
rfemur 3.65868 14.2988 30.096
rtibia 16.0939
rfoot -14.8932 -10.5262
rtoes -11.759
lfemur -34.466 -9.07659 -17.2246
ltibia 41.6433
lfoot -5.63659 3.61158
ltoes 9.95588
238
root -1.24611 16.1367 5.66231 0.495921 1.97047 -1.26474
lowerback 13.356 1.18491 -3.36162
upperback -4.43967 1.20086 1.89327
thorax -12.5537 0.92927 3.70547
lowerneck -10.163 -6.47906 -4.08464
upperneck 18.8919 -9.06373 4.17675
head 7.8845 -4.22825 1.13863
rclavicle -1.38528e-014 1.59028e-014
rhumerus -26.4786 -0.415566 -82.5296
rradius 36.079
rwrist -4.12963
rhand -11.074 19.6691
rfingers 7.12502
rthumb 14.9492 -9.77136
lclavicle -1.38528e-014 1.59028e-014
lhumerus -42.3189 8.65486 82.8887
lradius 21.386
lwrist -2.06309
lhand -3.75356 19.6774
lfingers 7.12502
lthumb 21.9906 48.4473
rfemur 5.09035 14.2737 30.34
rtibia 14.3059
rfoot -14.5302 -10.5838
rtoes -11.9211
lfemur -34.3929 -10.5292 -16.4658
ltibia 39.2747
lfoot -6.28478 4.48238
ltoes 7.63022
239
root -1.23254 16.145 5.79564 0.701076 1.82325 -1.29567
lowerback 13.0734 1.20972 -3.3632
upperback -4.49482 1.2438 1.90657
thorax -12.4507 0.949333 3.71166
lowerneck -10.2611 -6.50028 -4.07377
upperneck 19.1928 -9.07462 4.01392
head 7.99406 -4.24188 1.07575
rclavicle -1.06971e-014 1.19271e-015
rhumerus -26.4694 -0.0676195 -82.5794
rradius 36.5486
rwrist -4.0184
rhand -11.0276 19.6585
rfingers 7.12502
rthumb 14.9939 -9.7787
lclavicle -1.06971e-014 1.19271e-015
lhumerus -42.269 8.66577 82.9367
lradius 21.4596
lwrist -2.0492
lhand -3.72522 19.9236
lfingers 7.12502
lthumb 22.0178 48.6903
rfemur 6.49717 14.2561 30.3849
rtibia 12.3633
rfoot -14.025 -10.5867
rtoes -13.1526
lfemur -34.4702 -11.9787 -15.7506
ltibia 37.0549
lfoot -6.81613 5.67439
ltoes 3.70461
240
root -1.21807 16.1494 5.93035 0.894483 1.60523 -1.48156
lowerback 12.8047 1.2521 -3.19175
upperback -4.51845 1.34571 1.96247
thorax -12.3211 0.984734 3.65262
lowerneck -10.2976 -6.43816 -4.13776
upperneck 19.0613 -8.99082 4.12256
head 7.96154 -4.1975 1.13082
rclavicle 1.11692e-014 3.00165e-014
rhumerus -26.1991 0.239736 -82.6568
rradius 36.6331
rwrist -3.96886
rhand -11.1619 20.0753
rfingers 7.12502
rthumb 14.8645 -9.37145
lclavicle 1.11692e-014 3.00165e-014
lhumerus -42.0958 8.55853 83.097
lradius 21.558
lwrist -1.7671
lhand -3.49016 20.6401
lfingers 7.12502
lthumb 22.2435 49.3801
rfemur 8.10344 14.2153 30.5907
rtibia 10.0791
rfoot -13.2666 -10.6184
rtoes -14.4764
lfemur -34.5857 -13.375 -14.8221
ltibia 35.0326
lfoot -7.01138 7.01162
ltoes 1.55448
241
root -1.20365 16.148 6.06335 0.919746 1.43369 -1.522
lowerback 12.6532 1.30948 -3.21711
upperback -4.47092 1.42524 1.98705
thorax -12.1844 1.02213 3.67595
lowerneck -10.0713 -6.32688 -4.19373
upperneck 18.4878 -8.85346 4.37231
head 7.73935 -4.12506 1.24979
rclavicle 9.54166e-015 1.15295e-014
rhumerus -25.8451 0.592125 -82.7651
rradius 36.595
rwrist -4.04423
rhand -11.2779 20.1859
rfingers 7.12502
rthumb 14.7528 -9.2691
lclavicle 9.54166e-015 1.15295e-014
lhumerus -41.9531 8.52442 83.1785
lradius 21.6158
lwrist -1.79861
lhand -3.44268 20.7854
lfingers 7.12502
lthumb 22.2891 49.5199
rfemur 10.3164 14.1131 30.6754
rtibia 6.99702
rfoot -12.2017 -10.4768
rtoes -14.72
lfemur -34.5529 -14.8556 -14.0453
ltibia 33.2251
lfoot -7.35202 8.34049
ltoes 2.19345
242
root -1.19424 16.1484 6.18615 0.985385 1.4315 -1.57738
lowerback 12.6613 1.2836 -3.31245
upperback -4.45542 1.38124 2.05584
thorax -12.1731 1.01178 3.81651
lowerneck -10.1039 -6.2309 -4.22932
upperneck 18.4059 -8.70872 4.37463
head 7.71314 -4.05882 1.27149
rclavicle 1.23743e-014 7.95139e-015
rhumerus -25.6763 1.17412 -82.8538
rradius 36.8641
rwrist -4.24641
rhand -11.2172 20.0505
rfingers 7.12502
rthumb 14.8112 -9.40015
lclavicle 1.23743e-014 7.95139e-015
lhumerus -41.8212 8.6651 83.209
lradius 21.6239
lwrist -1.88582
lhand -3.7636 20.1369
lfingers 7.12502
lthumb 21.981 48.908
rfemur 14.6342 13.8466 30.7572
rtibia -7.95139e-015
rfoot -9.44519 -10.39
rtoes -14.3016
lfemur -34.7604 -16.2649 -13.2184
ltibia 31.6978
lfoot -7.68213 9.4939
ltoes 2.59062
243
root -1.1811 16.1499 6.31276 1.15194 1.41175 -1.73446
lowerback 12.5659 1.25634 -3.21226
upperback -4.5076 1.37005 2.10151
thorax -12.1723 1.00204 3.81322
lowerneck -10.0884 -6.2699 -4.30593
upperneck 18.6502 -8.74715 4.2975
head 7.7928 -4.08654 1.25249
rclavicle 2.34814e-015 7.35503e-015
rhumerus -25.6911 1.3824 -82.8882
rradius 37.0844
rwrist -4.14394
rhand -11.0315 20.0651
rfingers 7.12502
rthumb 14.9902 -9.37235
lclavicle 2.34814e-015 7.35503e-015
lhumerus -41.7405 8.64233 83.2463
lradius 21.7814
lwrist -1.68979
lhand -3.83535 19.9447
lfingers 7.12502
lthumb 21.9121 48.7238
rfemur 14.9592 13.6195 30.9252
rtibia 9.54166e-015
rfoot -9.81014 -10.1863
rtoes -15.0251
lfemur -35.1341 -17.7461 -12.2203
ltibia 30.4165
lfoot -8.19285 10.8197
ltoes 3.28487
